<?xml version="1.0" encoding="UTF-8" standalone="no"?>
<!DOCTYPE svg PUBLIC "-//W3C//DTD SVG 1.1//EN"
 "http://www.w3.org/Graphics/SVG/1.1/DTD/svg11.dtd">
<!-- Generated by graphviz version 14.1.2 (0)
 -->
<!-- Title: MedTechCompliance Pages: 1 -->
<svg width="1684pt" height="706pt"
 viewBox="0.00 0.00 1684.00 706.00" xmlns="http://www.w3.org/2000/svg" xmlns:xlink="http://www.w3.org/1999/xlink">
<g id="graph0" class="graph" transform="scale(1 1) rotate(0) translate(4 701.5)">
<title>MedTechCompliance</title>
<polygon fill="#2d2d2d" stroke="none" points="-4,4 -4,-701.5 1679.58,-701.5 1679.58,4 -4,4"/>
<g id="clust1" class="cluster">
<title>cluster_entry</title>
<polygon fill="#3a3a3a" stroke="black" points="397.58,-613.75 397.58,-689.5 710.58,-689.5 710.58,-613.75 397.58,-613.75"/>
<text xml:space="preserve" text-anchor="middle" x="554.08" y="-672.2" font-family="Arial" font-size="14.00" fill="white">Entry Points</text>
</g>
<g id="clust2" class="cluster">
<title>cluster_security</title>
<polygon fill="#3a3a3a" stroke="black" points="311.58,-81 311.58,-585.25 703.58,-585.25 703.58,-81 311.58,-81"/>
<text xml:space="preserve" text-anchor="middle" x="507.58" y="-567.95" font-family="Arial" font-size="14.00" fill="white">Security Middleware Layer</text>
</g>
<g id="clust3" class="cluster">
<title>cluster_backend</title>
<polygon fill="#3a3a3a" stroke="black" points="846.58,-284.25 846.58,-455 1412.58,-455 1412.58,-284.25 846.58,-284.25"/>
<text xml:space="preserve" text-anchor="middle" x="1129.58" y="-437.7" font-family="Arial" font-size="14.00" fill="white">Express.js Backend (Port 3002)</text>
</g>
<g id="clust4" class="cluster">
<title>cluster_database</title>
<polygon fill="#3a3a3a" stroke="black" points="1199.58,-8 1199.58,-265.25 1341.58,-265.25 1341.58,-8 1199.58,-8"/>
<text xml:space="preserve" text-anchor="middle" x="1270.58" y="-247.95" font-family="Arial" font-size="14.00" fill="white">Data Persistence</text>
</g>
<g id="clust5" class="cluster">
<title>cluster_features</title>
<polygon fill="#3a3a3a" stroke="black" points="711.58,-176.5 711.58,-252.25 1191.58,-252.25 1191.58,-176.5 711.58,-176.5"/>
<text xml:space="preserve" text-anchor="middle" x="951.58" y="-234.95" font-family="Arial" font-size="14.00" fill="white">Security Features</text>
</g>
<g id="clust6" class="cluster">
<title>cluster_legend</title>
<polygon fill="#2a2a2a" stroke="black" points="1553.58,-176.5 1553.58,-689.5 1667.58,-689.5 1667.58,-176.5 1553.58,-176.5"/>
<text xml:space="preserve" text-anchor="middle" x="1610.58" y="-672.2" font-family="Arial" font-size="14.00" fill="white">Legend</text>
</g>
<!-- browser -->
<g id="node1" class="node">
<title>browser</title>
<path fill="#5a9fd4" stroke="black" d="M475.58,-657.75C475.58,-657.75 417.58,-657.75 417.58,-657.75 411.58,-657.75 405.58,-651.75 405.58,-645.75 405.58,-645.75 405.58,-633.75 405.58,-633.75 405.58,-627.75 411.58,-621.75 417.58,-621.75 417.58,-621.75 475.58,-621.75 475.58,-621.75 481.58,-621.75 487.58,-627.75 487.58,-633.75 487.58,-633.75 487.58,-645.75 487.58,-645.75 487.58,-651.75 481.58,-657.75 475.58,-657.75"/>
<text xml:space="preserve" text-anchor="middle" x="446.58" y="-642.8" font-family="Arial" font-size="11.00" fill="white">Web Browser</text>
<text xml:space="preserve" text-anchor="middle" x="446.58" y="-629.3" font-family="Arial" font-size="11.00" fill="white">(React App)</text>
</g>
<!-- nginx -->
<g id="node4" class="node">
<title>nginx</title>
<path fill="#6a8a6a" stroke="black" d="M425.58,-553.5C425.58,-553.5 331.58,-553.5 331.58,-553.5 325.58,-553.5 319.58,-547.5 319.58,-541.5 319.58,-541.5 319.58,-503.5 319.58,-503.5 319.58,-497.5 325.58,-491.5 331.58,-491.5 331.58,-491.5 425.58,-491.5 425.58,-491.5 431.58,-491.5 437.58,-497.5 437.58,-503.5 437.58,-503.5 437.58,-541.5 437.58,-541.5 437.58,-547.5 431.58,-553.5 425.58,-553.5"/>
<text xml:space="preserve" text-anchor="middle" x="378.58" y="-539.05" font-family="Arial" font-size="11.00" fill="white">Nginx Reverse Proxy</text>
<text xml:space="preserve" text-anchor="middle" x="378.58" y="-525.55" font-family="Arial" font-size="11.00" fill="white">• Rate Limiting</text>
<text xml:space="preserve" text-anchor="middle" x="378.58" y="-512.05" font-family="Arial" font-size="11.00" fill="white">• SSL/TLS</text>
<text xml:space="preserve" text-anchor="middle" x="378.58" y="-498.55" font-family="Arial" font-size="11.00" fill="white">• Security Headers</text>
</g>
<!-- browser&#45;&gt;nginx -->
<g id="edge1" class="edge">
<title>browser&#45;&gt;nginx</title>
<path fill="none" stroke="white" d="M429.26,-621.43C424.4,-616.03 419.34,-609.89 415.33,-603.75 407.4,-591.63 400.32,-577.51 394.54,-564.53"/>
<polygon fill="white" stroke="white" points="397.76,-563.16 390.59,-555.36 391.32,-565.93 397.76,-563.16"/>
<text xml:space="preserve" text-anchor="middle" x="429.96" y="-595.2" font-family="Arial" font-size="9.00">HTTPS</text>
</g>
<!-- electron -->
<g id="node2" class="node">
<title>electron</title>
<path fill="#5a9fd4" stroke="black" d="M591.83,-657.75C591.83,-657.75 517.33,-657.75 517.33,-657.75 511.33,-657.75 505.33,-651.75 505.33,-645.75 505.33,-645.75 505.33,-633.75 505.33,-633.75 505.33,-627.75 511.33,-621.75 517.33,-621.75 517.33,-621.75 591.83,-621.75 591.83,-621.75 597.83,-621.75 603.83,-627.75 603.83,-633.75 603.83,-633.75 603.83,-645.75 603.83,-645.75 603.83,-651.75 597.83,-657.75 591.83,-657.75"/>
<text xml:space="preserve" text-anchor="middle" x="554.58" y="-642.8" font-family="Arial" font-size="11.00" fill="white">Electron Desktop</text>
<text xml:space="preserve" text-anchor="middle" x="554.58" y="-629.3" font-family="Arial" font-size="11.00" fill="white">(Optional)</text>
</g>
<!-- electron&#45;&gt;nginx -->
<g id="edge2" class="edge">
<title>electron&#45;&gt;nginx</title>
<path fill="none" stroke="white" d="M513.53,-621.36C492.99,-611.89 468.19,-599.26 447.58,-585.25 437.3,-578.26 426.93,-569.86 417.47,-561.54"/>
<polygon fill="white" stroke="white" points="419.96,-559.07 410.19,-554.98 415.27,-564.27 419.96,-559.07"/>
<text xml:space="preserve" text-anchor="middle" x="490.22" y="-595.2" font-family="Arial" font-size="9.00">HTTPS</text>
</g>
<!-- ai_service -->
<g id="node24" class="node">
<title>ai_service</title>
<path fill="#7a5a8a" stroke="black" d="M869.46,-540.5C869.46,-540.5 747.71,-540.5 747.71,-540.5 741.71,-540.5 735.71,-534.5 735.71,-528.5 735.71,-528.5 735.71,-516.5 735.71,-516.5 735.71,-510.5 741.71,-504.5 747.71,-504.5 747.71,-504.5 869.46,-504.5 869.46,-504.5 875.46,-504.5 881.46,-510.5 881.46,-516.5 881.46,-516.5 881.46,-528.5 881.46,-528.5 881.46,-534.5 875.46,-540.5 869.46,-540.5"/>
<text xml:space="preserve" text-anchor="middle" x="808.58" y="-525.55" font-family="Arial" font-size="11.00" fill="white">AI Service</text>
<text xml:space="preserve" text-anchor="middle" x="808.58" y="-512.05" font-family="Arial" font-size="11.00" fill="white">(Command Injection Fixed)</text>
</g>
<!-- electron&#45;&gt;ai_service -->
<g id="edge31" class="edge">
<title>electron&#45;&gt;ai_service</title>
<path fill="none" stroke="white" d="M594.02,-621.36C600.51,-618.69 607.2,-616.06 613.58,-613.75 654.63,-598.88 667.75,-603.11 707.58,-585.25 731.06,-574.72 755.72,-559.73 774.8,-547.15"/>
<polygon fill="white" stroke="white" points="776.62,-550.14 782.98,-541.67 772.72,-544.33 776.62,-550.14"/>
<text xml:space="preserve" text-anchor="middle" x="702.95" y="-595.2" font-family="Arial" font-size="9.00">Local AI</text>
</g>
<!-- config -->
<g id="node3" class="node">
<title>config</title>
<path fill="#8b7355" stroke="black" d="M690.83,-657.75C690.83,-657.75 634.33,-657.75 634.33,-657.75 628.33,-657.75 622.33,-651.75 622.33,-645.75 622.33,-645.75 622.33,-633.75 622.33,-633.75 622.33,-627.75 628.33,-621.75 634.33,-621.75 634.33,-621.75 690.83,-621.75 690.83,-621.75 696.83,-621.75 702.83,-627.75 702.83,-633.75 702.83,-633.75 702.83,-645.75 702.83,-645.75 702.83,-651.75 696.83,-657.75 690.83,-657.75"/>
<text xml:space="preserve" text-anchor="middle" x="662.58" y="-642.8" font-family="Arial" font-size="11.00" fill="white">Configuration</text>
<text xml:space="preserve" text-anchor="middle" x="662.58" y="-629.3" font-family="Arial" font-size="11.00" fill="white">(.env)</text>
</g>
<!-- server -->
<g id="node11" class="node">
<title>server</title>
<path fill="#7a6a9a" stroke="black" d="M1009.33,-423.25C1009.33,-423.25 919.83,-423.25 919.83,-423.25 913.83,-423.25 907.83,-417.25 907.83,-411.25 907.83,-411.25 907.83,-386.75 907.83,-386.75 907.83,-380.75 913.83,-374.75 919.83,-374.75 919.83,-374.75 1009.33,-374.75 1009.33,-374.75 1015.33,-374.75 1021.33,-380.75 1021.33,-386.75 1021.33,-386.75 1021.33,-411.25 1021.33,-411.25 1021.33,-417.25 1015.33,-423.25 1009.33,-423.25"/>
<text xml:space="preserve" text-anchor="middle" x="964.58" y="-408.8" font-family="Arial" font-size="11.00" fill="white">server/index.js</text>
<text xml:space="preserve" text-anchor="middle" x="964.58" y="-395.3" font-family="Arial" font-size="11.00" fill="white">• CSP Configuration</text>
<text xml:space="preserve" text-anchor="middle" x="964.58" y="-381.8" font-family="Arial" font-size="11.00" fill="white">• HTTPS Support</text>
</g>
<!-- config&#45;&gt;server -->
<g id="edge3" class="edge">
<title>config&#45;&gt;server</title>
<path fill="none" stroke="white" d="M703.12,-633.78C760.83,-625.97 862.77,-609.19 890.58,-585.25 935.47,-546.62 953.41,-476.93 960.37,-434.91"/>
<polygon fill="white" stroke="white" points="963.82,-435.5 961.87,-425.09 956.9,-434.45 963.82,-435.5"/>
<text xml:space="preserve" text-anchor="middle" x="963.81" y="-519.2" font-family="Arial" font-size="9.00">env vars</text>
</g>
<!-- helmet -->
<g id="node5" class="node">
<title>helmet</title>
<path fill="#6a8a6a" stroke="black" d="M418.21,-417C418.21,-417 342.96,-417 342.96,-417 336.96,-417 330.96,-411 330.96,-405 330.96,-405 330.96,-393 330.96,-393 330.96,-387 336.96,-381 342.96,-381 342.96,-381 418.21,-381 418.21,-381 424.21,-381 430.21,-387 430.21,-393 430.21,-393 430.21,-405 430.21,-405 430.21,-411 424.21,-417 418.21,-417"/>
<text xml:space="preserve" text-anchor="middle" x="380.58" y="-402.05" font-family="Arial" font-size="11.00" fill="white">Helmet</text>
<text xml:space="preserve" text-anchor="middle" x="380.58" y="-388.55" font-family="Arial" font-size="11.00" fill="white">Security Headers</text>
</g>
<!-- nginx&#45;&gt;helmet -->
<g id="edge4" class="edge">
<title>nginx&#45;&gt;helmet</title>
<path fill="none" stroke="white" d="M379.08,-491.15C379.4,-472.01 379.8,-447.44 380.11,-428.64"/>
<polygon fill="white" stroke="white" points="383.61,-428.79 380.27,-418.74 376.61,-428.68 383.61,-428.79"/>
</g>
<!-- cors -->
<g id="node6" class="node">
<title>cors</title>
<path fill="#6a8a6a" stroke="black" d="M396.83,-328.25C396.83,-328.25 364.33,-328.25 364.33,-328.25 358.33,-328.25 352.33,-322.25 352.33,-316.25 352.33,-316.25 352.33,-304.25 352.33,-304.25 352.33,-298.25 358.33,-292.25 364.33,-292.25 364.33,-292.25 396.83,-292.25 396.83,-292.25 402.83,-292.25 408.83,-298.25 408.83,-304.25 408.83,-304.25 408.83,-316.25 408.83,-316.25 408.83,-322.25 402.83,-328.25 396.83,-328.25"/>
<text xml:space="preserve" text-anchor="middle" x="380.58" y="-313.3" font-family="Arial" font-size="11.00" fill="white">CORS</text>
<text xml:space="preserve" text-anchor="middle" x="380.58" y="-299.8" font-family="Arial" font-size="11.00" fill="white">Whitelist</text>
</g>
<!-- helmet&#45;&gt;cors -->
<g id="edge5" class="edge">
<title>helmet&#45;&gt;cors</title>
<path fill="none" stroke="white" d="M380.58,-380.86C380.58,-369.17 380.58,-353.42 380.58,-339.85"/>
<polygon fill="white" stroke="white" points="384.08,-340.16 380.58,-330.16 377.08,-340.16 384.08,-340.16"/>
</g>
<!-- ratelimit -->
<g id="node7" class="node">
<title>ratelimit</title>
<path fill="#6a8a6a" stroke="black" d="M429.08,-220.5C429.08,-220.5 332.08,-220.5 332.08,-220.5 326.08,-220.5 320.08,-214.5 320.08,-208.5 320.08,-208.5 320.08,-196.5 320.08,-196.5 320.08,-190.5 326.08,-184.5 332.08,-184.5 332.08,-184.5 429.08,-184.5 429.08,-184.5 435.08,-184.5 441.08,-190.5 441.08,-196.5 441.08,-196.5 441.08,-208.5 441.08,-208.5 441.08,-214.5 435.08,-220.5 429.08,-220.5"/>
<text xml:space="preserve" text-anchor="middle" x="380.58" y="-205.55" font-family="Arial" font-size="11.00" fill="white">Rate Limiter</text>
<text xml:space="preserve" text-anchor="middle" x="380.58" y="-192.05" font-family="Arial" font-size="11.00" fill="white">500/20/100 req/15min</text>
</g>
<!-- cors&#45;&gt;ratelimit -->
<g id="edge6" class="edge">
<title>cors&#45;&gt;ratelimit</title>
<path fill="none" stroke="white" d="M380.58,-291.79C380.58,-275.64 380.58,-251.33 380.58,-232.31"/>
<polygon fill="white" stroke="white" points="384.08,-232.5 380.58,-222.5 377.08,-232.5 384.08,-232.5"/>
</g>
<!-- sanitize -->
<g id="node8" class="node">
<title>sanitize</title>
<path fill="#6a8a6a" stroke="black" d="M411.83,-125C411.83,-125 337.33,-125 337.33,-125 331.33,-125 325.33,-119 325.33,-113 325.33,-113 325.33,-101 325.33,-101 325.33,-95 331.33,-89 337.33,-89 337.33,-89 411.83,-89 411.83,-89 417.83,-89 423.83,-95 423.83,-101 423.83,-101 423.83,-113 423.83,-113 423.83,-119 417.83,-125 411.83,-125"/>
<text xml:space="preserve" text-anchor="middle" x="374.58" y="-110.05" font-family="Arial" font-size="11.00" fill="white">Input Sanitization</text>
<text xml:space="preserve" text-anchor="middle" x="374.58" y="-96.55" font-family="Arial" font-size="11.00" fill="white">XSS Protection</text>
</g>
<!-- ratelimit&#45;&gt;sanitize -->
<g id="edge7" class="edge">
<title>ratelimit&#45;&gt;sanitize</title>
<path fill="none" stroke="white" d="M379.48,-184.35C378.62,-170.99 377.41,-152.15 376.41,-136.53"/>
<polygon fill="white" stroke="white" points="379.92,-136.62 375.79,-126.87 372.94,-137.07 379.92,-136.62"/>
</g>
<!-- auth_check -->
<g id="node25" class="node">
<title>auth_check</title>
<path fill="#8a8a5a" stroke="black" d="M65.89,-414.29C65.89,-414.29 11.69,-401.71 11.69,-401.71 5.84,-400.36 5.84,-397.64 11.69,-396.29 11.69,-396.29 65.89,-383.71 65.89,-383.71 71.74,-382.36 83.43,-382.36 89.27,-383.71 89.27,-383.71 143.47,-396.29 143.47,-396.29 149.32,-397.64 149.32,-400.36 143.47,-401.71 143.47,-401.71 89.27,-414.29 89.27,-414.29 83.43,-415.64 71.74,-415.64 65.89,-414.29"/>
<text xml:space="preserve" text-anchor="middle" x="77.58" y="-395.3" font-family="Arial" font-size="11.00" fill="white">Authenticated?</text>
</g>
<!-- sanitize&#45;&gt;auth_check -->
<g id="edge8" class="edge">
<title>sanitize&#45;&gt;auth_check</title>
<path fill="none" stroke="white" d="M348.42,-125.46C305.37,-154.95 218.22,-217.95 156.58,-284.25 130.77,-312.01 106.78,-348.73 92.17,-372.83"/>
<polygon fill="white" stroke="white" points="89.21,-370.96 87.09,-381.34 95.22,-374.54 89.21,-370.96"/>
</g>
<!-- auth -->
<g id="node9" class="node">
<title>auth</title>
<path fill="#6a8a6a" stroke="black" d="M553.08,-540.5C553.08,-540.5 468.08,-540.5 468.08,-540.5 462.08,-540.5 456.08,-534.5 456.08,-528.5 456.08,-528.5 456.08,-516.5 456.08,-516.5 456.08,-510.5 462.08,-504.5 468.08,-504.5 468.08,-504.5 553.08,-504.5 553.08,-504.5 559.08,-504.5 565.08,-510.5 565.08,-516.5 565.08,-516.5 565.08,-528.5 565.08,-528.5 565.08,-534.5 559.08,-540.5 553.08,-540.5"/>
<text xml:space="preserve" text-anchor="middle" x="510.58" y="-525.55" font-family="Arial" font-size="11.00" fill="white">JWT Authentication</text>
<text xml:space="preserve" text-anchor="middle" x="510.58" y="-512.05" font-family="Arial" font-size="11.00" fill="white">128&#45;char secret</text>
</g>
<!-- refresh_token -->
<g id="node20" class="node">
<title>refresh_token</title>
<path fill="#9a7a6a" stroke="black" d="M799.08,-220.5C799.08,-220.5 732.08,-220.5 732.08,-220.5 726.08,-220.5 720.08,-214.5 720.08,-208.5 720.08,-208.5 720.08,-196.5 720.08,-196.5 720.08,-190.5 726.08,-184.5 732.08,-184.5 732.08,-184.5 799.08,-184.5 799.08,-184.5 805.08,-184.5 811.08,-190.5 811.08,-196.5 811.08,-196.5 811.08,-208.5 811.08,-208.5 811.08,-214.5 805.08,-220.5 799.08,-220.5"/>
<text xml:space="preserve" text-anchor="middle" x="765.58" y="-205.55" font-family="Arial" font-size="11.00" fill="white">Refresh Tokens</text>
<text xml:space="preserve" text-anchor="middle" x="765.58" y="-192.05" font-family="Arial" font-size="11.00" fill="white">7&#45;day expiry</text>
</g>
<!-- auth&#45;&gt;refresh_token -->
<g id="edge27" class="edge">
<title>auth&#45;&gt;refresh_token</title>
<path fill="none" stroke="white" d="M512.89,-504.29C520.12,-457.96 546.83,-330.29 627.58,-273.25 656.77,-252.63 675.53,-281.06 707.58,-265.25 723.71,-257.29 737.67,-242.84 747.85,-229.92"/>
<polygon fill="white" stroke="white" points="750.5,-232.22 753.66,-222.11 744.88,-228.04 750.5,-232.22"/>
</g>
<!-- password_policy -->
<g id="node21" class="node">
<title>password_policy</title>
<path fill="#9a7a6a" stroke="black" d="M937.71,-220.5C937.71,-220.5 841.46,-220.5 841.46,-220.5 835.46,-220.5 829.46,-214.5 829.46,-208.5 829.46,-208.5 829.46,-196.5 829.46,-196.5 829.46,-190.5 835.46,-184.5 841.46,-184.5 841.46,-184.5 937.71,-184.5 937.71,-184.5 943.71,-184.5 949.71,-190.5 949.71,-196.5 949.71,-196.5 949.71,-208.5 949.71,-208.5 949.71,-214.5 943.71,-220.5 937.71,-220.5"/>
<text xml:space="preserve" text-anchor="middle" x="889.58" y="-205.55" font-family="Arial" font-size="11.00" fill="white">Password Policy</text>
<text xml:space="preserve" text-anchor="middle" x="889.58" y="-192.05" font-family="Arial" font-size="11.00" fill="white">12+ chars, complexity</text>
</g>
<!-- auth&#45;&gt;password_policy -->
<g id="edge28" class="edge">
<title>auth&#45;&gt;password_policy</title>
<path fill="none" stroke="white" d="M521.16,-504.32C555.44,-448.66 661.68,-276.7 667.58,-273.25 696.96,-256.05 789.11,-278.23 820.58,-265.25 839.23,-257.56 856.18,-242.57 868.61,-229.28"/>
<polygon fill="white" stroke="white" points="871.05,-231.81 875.09,-222.02 865.82,-227.15 871.05,-231.81"/>
</g>
<!-- session_mgmt -->
<g id="node22" class="node">
<title>session_mgmt</title>
<path fill="#9a7a6a" stroke="black" d="M1075.71,-220.5C1075.71,-220.5 979.46,-220.5 979.46,-220.5 973.46,-220.5 967.46,-214.5 967.46,-208.5 967.46,-208.5 967.46,-196.5 967.46,-196.5 967.46,-190.5 973.46,-184.5 979.46,-184.5 979.46,-184.5 1075.71,-184.5 1075.71,-184.5 1081.71,-184.5 1087.71,-190.5 1087.71,-196.5 1087.71,-196.5 1087.71,-208.5 1087.71,-208.5 1087.71,-214.5 1081.71,-220.5 1075.71,-220.5"/>
<text xml:space="preserve" text-anchor="middle" x="1027.58" y="-205.55" font-family="Arial" font-size="11.00" fill="white">Session Management</text>
<text xml:space="preserve" text-anchor="middle" x="1027.58" y="-192.05" font-family="Arial" font-size="11.00" fill="white">Timeout warnings</text>
</g>
<!-- auth&#45;&gt;session_mgmt -->
<g id="edge29" class="edge">
<title>auth&#45;&gt;session_mgmt</title>
<path fill="none" stroke="white" d="M532.23,-504.02C594.46,-454.1 773.82,-312.63 842.58,-284.25 890.87,-264.32 911.45,-287.79 958.58,-265.25 976.54,-256.66 993.28,-241.92 1005.77,-229"/>
<polygon fill="white" stroke="white" points="1008.06,-231.67 1012.3,-221.97 1002.93,-226.91 1008.06,-231.67"/>
</g>
<!-- authorized_check -->
<g id="node26" class="node">
<title>authorized_check</title>
<path fill="#8a8a5a" stroke="black" d="M227.02,-413.8C227.02,-413.8 185.13,-402.2 185.13,-402.2 179.35,-400.6 179.35,-397.4 185.13,-395.8 185.13,-395.8 227.02,-384.2 227.02,-384.2 232.8,-382.6 244.36,-382.6 250.15,-384.2 250.15,-384.2 292.03,-395.8 292.03,-395.8 297.82,-397.4 297.82,-400.6 292.03,-402.2 292.03,-402.2 250.15,-413.8 250.15,-413.8 244.36,-415.4 232.8,-415.4 227.02,-413.8"/>
<text xml:space="preserve" text-anchor="middle" x="238.58" y="-395.3" font-family="Arial" font-size="11.00" fill="white">Authorized?</text>
</g>
<!-- auth&#45;&gt;authorized_check -->
<g id="edge11" class="edge">
<title>auth&#45;&gt;authorized_check</title>
<path fill="none" stroke="white" d="M478.45,-504.06C468.49,-499.31 457.3,-494.62 446.58,-491.5 386.34,-473.98 362.34,-502.25 306.58,-473.5 284.62,-462.18 266.09,-440.78 253.94,-423.98"/>
<polygon fill="white" stroke="white" points="256.98,-422.21 248.41,-415.97 251.22,-426.19 256.98,-422.21"/>
</g>
<!-- rbac -->
<g id="node10" class="node">
<title>rbac</title>
<path fill="#6a8a6a" stroke="black" d="M683.96,-540.5C683.96,-540.5 595.21,-540.5 595.21,-540.5 589.21,-540.5 583.21,-534.5 583.21,-528.5 583.21,-528.5 583.21,-516.5 583.21,-516.5 583.21,-510.5 589.21,-504.5 595.21,-504.5 595.21,-504.5 683.96,-504.5 683.96,-504.5 689.96,-504.5 695.96,-510.5 695.96,-516.5 695.96,-516.5 695.96,-528.5 695.96,-528.5 695.96,-534.5 689.96,-540.5 683.96,-540.5"/>
<text xml:space="preserve" text-anchor="middle" x="639.58" y="-525.55" font-family="Arial" font-size="11.00" fill="white">RBAC Authorization</text>
<text xml:space="preserve" text-anchor="middle" x="639.58" y="-512.05" font-family="Arial" font-size="11.00" fill="white">Role&#45;based Access</text>
</g>
<!-- rbac&#45;&gt;server -->
<g id="edge14" class="edge">
<title>rbac&#45;&gt;server</title>
<path fill="none" stroke="white" d="M686.15,-504.09C741.31,-483.47 833.68,-448.94 896.78,-425.35"/>
<polygon fill="white" stroke="white" points="897.87,-428.68 906.01,-421.9 895.42,-422.12 897.87,-428.68"/>
<text xml:space="preserve" text-anchor="middle" x="814.46" y="-464.95" font-family="Arial" font-size="9.00">Authorized</text>
</g>
<!-- auth_route -->
<g id="node12" class="node">
<title>auth_route</title>
<path fill="#5a7a9a" stroke="black" d="M1051.71,-328.25C1051.71,-328.25 991.46,-328.25 991.46,-328.25 985.46,-328.25 979.46,-322.25 979.46,-316.25 979.46,-316.25 979.46,-304.25 979.46,-304.25 979.46,-298.25 985.46,-292.25 991.46,-292.25 991.46,-292.25 1051.71,-292.25 1051.71,-292.25 1057.71,-292.25 1063.71,-298.25 1063.71,-304.25 1063.71,-304.25 1063.71,-316.25 1063.71,-316.25 1063.71,-322.25 1057.71,-328.25 1051.71,-328.25"/>
<text xml:space="preserve" text-anchor="middle" x="1021.58" y="-313.3" font-family="Arial" font-size="11.00" fill="white">/api/auth</text>
<text xml:space="preserve" text-anchor="middle" x="1021.58" y="-299.8" font-family="Arial" font-size="11.00" fill="white">Authentication</text>
</g>
<!-- server&#45;&gt;auth_route -->
<g id="edge15" class="edge">
<title>server&#45;&gt;auth_route</title>
<path fill="none" stroke="white" d="M980.16,-374.3C987.5,-363.12 996.29,-349.74 1003.89,-338.18"/>
<polygon fill="white" stroke="white" points="1006.79,-340.14 1009.35,-329.86 1000.94,-336.3 1006.79,-340.14"/>
</g>
<!-- compliance_route -->
<g id="node13" class="node">
<title>compliance_route</title>
<path fill="#5a7a9a" stroke="black" d="M1256.21,-328.25C1256.21,-328.25 1180.96,-328.25 1180.96,-328.25 1174.96,-328.25 1168.96,-322.25 1168.96,-316.25 1168.96,-316.25 1168.96,-304.25 1168.96,-304.25 1168.96,-298.25 1174.96,-292.25 1180.96,-292.25 1180.96,-292.25 1256.21,-292.25 1256.21,-292.25 1262.21,-292.25 1268.21,-298.25 1268.21,-304.25 1268.21,-304.25 1268.21,-316.25 1268.21,-316.25 1268.21,-322.25 1262.21,-328.25 1256.21,-328.25"/>
<text xml:space="preserve" text-anchor="middle" x="1218.58" y="-313.3" font-family="Arial" font-size="11.00" fill="white">/api/compliance</text>
<text xml:space="preserve" text-anchor="middle" x="1218.58" y="-299.8" font-family="Arial" font-size="11.00" fill="white">Compliance Data</text>
</g>
<!-- server&#45;&gt;compliance_route -->
<g id="edge16" class="edge">
<title>server&#45;&gt;compliance_route</title>
<path fill="none" stroke="white" d="M1021.58,-378.53C1062.13,-364.68 1116.52,-346.11 1157.88,-331.98"/>
<polygon fill="white" stroke="white" points="1158.87,-335.34 1167.21,-328.8 1156.61,-328.72 1158.87,-335.34"/>
</g>
<!-- audit_route -->
<g id="node14" class="node">
<title>audit_route</title>
<path fill="#5a7a9a" stroke="black" d="M1139.21,-328.25C1139.21,-328.25 1093.96,-328.25 1093.96,-328.25 1087.96,-328.25 1081.96,-322.25 1081.96,-316.25 1081.96,-316.25 1081.96,-304.25 1081.96,-304.25 1081.96,-298.25 1087.96,-292.25 1093.96,-292.25 1093.96,-292.25 1139.21,-292.25 1139.21,-292.25 1145.21,-292.25 1151.21,-298.25 1151.21,-304.25 1151.21,-304.25 1151.21,-316.25 1151.21,-316.25 1151.21,-322.25 1145.21,-328.25 1139.21,-328.25"/>
<text xml:space="preserve" text-anchor="middle" x="1116.58" y="-313.3" font-family="Arial" font-size="11.00" fill="white">/api/audit</text>
<text xml:space="preserve" text-anchor="middle" x="1116.58" y="-299.8" font-family="Arial" font-size="11.00" fill="white">Audit Trails</text>
</g>
<!-- server&#45;&gt;audit_route -->
<g id="edge17" class="edge">
<title>server&#45;&gt;audit_route</title>
<path fill="none" stroke="white" d="M1006.12,-374.3C1027.97,-361.82 1054.65,-346.6 1076.31,-334.23"/>
<polygon fill="white" stroke="white" points="1077.92,-337.34 1084.87,-329.35 1074.45,-331.26 1077.92,-337.34"/>
</g>
<!-- system_route -->
<g id="node15" class="node">
<title>system_route</title>
<path fill="#5a7a9a" stroke="black" d="M1392.58,-328.25C1392.58,-328.25 1298.58,-328.25 1298.58,-328.25 1292.58,-328.25 1286.58,-322.25 1286.58,-316.25 1286.58,-316.25 1286.58,-304.25 1286.58,-304.25 1286.58,-298.25 1292.58,-292.25 1298.58,-292.25 1298.58,-292.25 1392.58,-292.25 1392.58,-292.25 1398.58,-292.25 1404.58,-298.25 1404.58,-304.25 1404.58,-304.25 1404.58,-316.25 1404.58,-316.25 1404.58,-322.25 1398.58,-328.25 1392.58,-328.25"/>
<text xml:space="preserve" text-anchor="middle" x="1345.58" y="-313.3" font-family="Arial" font-size="11.00" fill="white">/api/system</text>
<text xml:space="preserve" text-anchor="middle" x="1345.58" y="-299.8" font-family="Arial" font-size="11.00" fill="white">System Management</text>
</g>
<!-- server&#45;&gt;system_route -->
<g id="edge18" class="edge">
<title>server&#45;&gt;system_route</title>
<path fill="none" stroke="white" d="M1021.8,-385.71C1082.24,-372.63 1180.61,-351.04 1275.07,-328.82"/>
<polygon fill="white" stroke="white" points="1275.86,-332.22 1284.79,-326.52 1274.25,-325.41 1275.86,-332.22"/>
</g>
<!-- modules_route -->
<g id="node16" class="node">
<title>modules_route</title>
<path fill="#5a7a9a" stroke="black" d="M948.96,-328.25C948.96,-328.25 866.21,-328.25 866.21,-328.25 860.21,-328.25 854.21,-322.25 854.21,-316.25 854.21,-316.25 854.21,-304.25 854.21,-304.25 854.21,-298.25 860.21,-292.25 866.21,-292.25 866.21,-292.25 948.96,-292.25 948.96,-292.25 954.96,-292.25 960.96,-298.25 960.96,-304.25 960.96,-304.25 960.96,-316.25 960.96,-316.25 960.96,-322.25 954.96,-328.25 948.96,-328.25"/>
<text xml:space="preserve" text-anchor="middle" x="907.58" y="-313.3" font-family="Arial" font-size="11.00" fill="white">/api/modules</text>
<text xml:space="preserve" text-anchor="middle" x="907.58" y="-299.8" font-family="Arial" font-size="11.00" fill="white">Module Operations</text>
</g>
<!-- server&#45;&gt;modules_route -->
<g id="edge19" class="edge">
<title>server&#45;&gt;modules_route</title>
<path fill="none" stroke="white" d="M949,-374.3C941.66,-363.12 932.87,-349.74 925.28,-338.18"/>
<polygon fill="white" stroke="white" points="928.23,-336.3 919.81,-329.86 922.38,-340.14 928.23,-336.3"/>
</g>
<!-- sqlite -->
<g id="node17" class="node">
<title>sqlite</title>
<path fill="#8a6a5a" stroke="black" d="M1321.33,-233.5C1321.33,-233.5 1219.83,-233.5 1219.83,-233.5 1213.83,-233.5 1207.83,-227.5 1207.83,-221.5 1207.83,-221.5 1207.83,-183.5 1207.83,-183.5 1207.83,-177.5 1213.83,-171.5 1219.83,-171.5 1219.83,-171.5 1321.33,-171.5 1321.33,-171.5 1327.33,-171.5 1333.33,-177.5 1333.33,-183.5 1333.33,-183.5 1333.33,-221.5 1333.33,-221.5 1333.33,-227.5 1327.33,-233.5 1321.33,-233.5"/>
<text xml:space="preserve" text-anchor="middle" x="1270.58" y="-219.05" font-family="Arial" font-size="11.00" fill="white">SQLite Database</text>
<text xml:space="preserve" text-anchor="middle" x="1270.58" y="-205.55" font-family="Arial" font-size="11.00" fill="white">• WAL Mode</text>
<text xml:space="preserve" text-anchor="middle" x="1270.58" y="-192.05" font-family="Arial" font-size="11.00" fill="white">• Foreign Keys</text>
<text xml:space="preserve" text-anchor="middle" x="1270.58" y="-178.55" font-family="Arial" font-size="11.00" fill="white">• Prepared Statements</text>
</g>
<!-- auth_route&#45;&gt;sqlite -->
<g id="edge20" class="edge">
<title>auth_route&#45;&gt;sqlite</title>
<path fill="none" stroke="white" d="M1053.35,-291.86C1059.59,-288.97 1066.18,-286.26 1072.58,-284.25 1125.35,-267.66 1145.1,-287.86 1195.58,-265.25 1208.82,-259.32 1221.63,-250.41 1232.8,-241.18"/>
<polygon fill="white" stroke="white" points="1234.96,-243.94 1240.24,-234.76 1230.39,-238.64 1234.96,-243.94"/>
</g>
<!-- compliance_route&#45;&gt;sqlite -->
<g id="edge21" class="edge">
<title>compliance_route&#45;&gt;sqlite</title>
<path fill="none" stroke="white" d="M1227.17,-291.79C1233.57,-278.77 1242.58,-260.45 1250.73,-243.87"/>
<polygon fill="white" stroke="white" points="1253.73,-245.71 1255,-235.19 1247.44,-242.62 1253.73,-245.71"/>
</g>
<!-- audit_route&#45;&gt;sqlite -->
<g id="edge22" class="edge">
<title>audit_route&#45;&gt;sqlite</title>
<path fill="none" stroke="white" d="M1144.87,-291.82C1149.7,-289.13 1154.72,-286.51 1159.58,-284.25 1171.57,-278.68 1176.14,-280.87 1187.58,-274.25 1203.18,-265.23 1218.65,-253.14 1231.93,-241.51"/>
<polygon fill="white" stroke="white" points="1234.09,-244.27 1239.19,-234.98 1229.42,-239.06 1234.09,-244.27"/>
</g>
<!-- ip_tracking -->
<g id="node23" class="node">
<title>ip_tracking</title>
<path fill="#9a7a6a" stroke="black" d="M1171.33,-220.5C1171.33,-220.5 1117.83,-220.5 1117.83,-220.5 1111.83,-220.5 1105.83,-214.5 1105.83,-208.5 1105.83,-208.5 1105.83,-196.5 1105.83,-196.5 1105.83,-190.5 1111.83,-184.5 1117.83,-184.5 1117.83,-184.5 1171.33,-184.5 1171.33,-184.5 1177.33,-184.5 1183.33,-190.5 1183.33,-196.5 1183.33,-196.5 1183.33,-208.5 1183.33,-208.5 1183.33,-214.5 1177.33,-220.5 1171.33,-220.5"/>
<text xml:space="preserve" text-anchor="middle" x="1144.58" y="-205.55" font-family="Arial" font-size="11.00" fill="white">IP Tracking</text>
<text xml:space="preserve" text-anchor="middle" x="1144.58" y="-192.05" font-family="Arial" font-size="11.00" fill="white">Proxy&#45;aware</text>
</g>
<!-- audit_route&#45;&gt;ip_tracking -->
<g id="edge30" class="edge">
<title>audit_route&#45;&gt;ip_tracking</title>
<path fill="none" stroke="white" d="M1121.2,-291.79C1125.5,-275.56 1131.98,-251.1 1137.02,-232.04"/>
<polygon fill="white" stroke="white" points="1140.39,-233.01 1139.56,-222.45 1133.62,-231.22 1140.39,-233.01"/>
</g>
<!-- system_route&#45;&gt;sqlite -->
<g id="edge23" class="edge">
<title>system_route&#45;&gt;sqlite</title>
<path fill="none" stroke="white" d="M1333.2,-291.79C1323.79,-278.52 1310.48,-259.75 1298.54,-242.93"/>
<polygon fill="white" stroke="white" points="1301.61,-241.2 1292.97,-235.06 1295.9,-245.25 1301.61,-241.2"/>
</g>
<!-- modules_route&#45;&gt;sqlite -->
<g id="edge24" class="edge">
<title>modules_route&#45;&gt;sqlite</title>
<path fill="none" stroke="white" d="M946.33,-291.82C954.22,-288.86 962.56,-286.14 970.58,-284.25 1019.43,-272.76 1149.1,-284.17 1195.58,-265.25 1209.4,-259.63 1222.62,-250.52 1234.01,-241"/>
<polygon fill="white" stroke="white" points="1235.99,-243.92 1241.2,-234.69 1231.38,-238.66 1235.99,-243.92"/>
</g>
<!-- audit_integrity -->
<g id="node18" class="node">
<title>audit_integrity</title>
<path fill="#8a6a5a" stroke="black" d="M1319.08,-125C1319.08,-125 1222.08,-125 1222.08,-125 1216.08,-125 1210.08,-119 1210.08,-113 1210.08,-113 1210.08,-101 1210.08,-101 1210.08,-95 1216.08,-89 1222.08,-89 1222.08,-89 1319.08,-89 1319.08,-89 1325.08,-89 1331.08,-95 1331.08,-101 1331.08,-101 1331.08,-113 1331.08,-113 1331.08,-119 1325.08,-125 1319.08,-125"/>
<text xml:space="preserve" text-anchor="middle" x="1270.58" y="-110.05" font-family="Arial" font-size="11.00" fill="white">Audit Trail</text>
<text xml:space="preserve" text-anchor="middle" x="1270.58" y="-96.55" font-family="Arial" font-size="11.00" fill="white">SHA&#45;256 Hash Chain</text>
</g>
<!-- sqlite&#45;&gt;audit_integrity -->
<g id="edge25" class="edge">
<title>sqlite&#45;&gt;audit_integrity</title>
<path fill="none" stroke="white" d="M1270.58,-171.14C1270.58,-160.14 1270.58,-147.75 1270.58,-136.88"/>
<polygon fill="white" stroke="white" points="1274.08,-136.92 1270.58,-126.92 1267.08,-136.92 1274.08,-136.92"/>
<text xml:space="preserve" text-anchor="middle" x="1293.08" y="-144.95" font-family="Arial" font-size="9.00">Every write</text>
</g>
<!-- success -->
<g id="node27" class="node">
<title>success</title>
<path fill="#5a8a5a" stroke="black" d="M1532.21,-417C1532.21,-417 1432.96,-417 1432.96,-417 1426.96,-417 1420.96,-411 1420.96,-405 1420.96,-405 1420.96,-393 1420.96,-393 1420.96,-387 1426.96,-381 1432.96,-381 1432.96,-381 1532.21,-381 1532.21,-381 1538.21,-381 1544.21,-387 1544.21,-393 1544.21,-393 1544.21,-405 1544.21,-405 1544.21,-411 1538.21,-417 1532.21,-417"/>
<text xml:space="preserve" text-anchor="middle" x="1482.58" y="-402.05" font-family="Arial" font-size="11.00" fill="white">✓ Request Successful</text>
<text xml:space="preserve" text-anchor="middle" x="1482.58" y="-388.55" font-family="Arial" font-size="11.00" fill="white">Audit Logged</text>
</g>
<!-- sqlite&#45;&gt;success -->
<g id="edge33" class="edge">
<title>sqlite&#45;&gt;success</title>
<path fill="none" stroke="white" d="M1333.74,-229.14C1361.46,-242.6 1392.99,-261.14 1416.58,-284.25 1441.76,-308.91 1460.57,-345.19 1471.54,-370.11"/>
<polygon fill="white" stroke="white" points="1468.3,-371.44 1475.43,-379.28 1474.74,-368.71 1468.3,-371.44"/>
</g>
<!-- backups -->
<g id="node19" class="node">
<title>backups</title>
<path fill="#8a6a5a" stroke="black" d="M1317.96,-52C1317.96,-52 1223.21,-52 1223.21,-52 1217.21,-52 1211.21,-46 1211.21,-40 1211.21,-40 1211.21,-28 1211.21,-28 1211.21,-22 1217.21,-16 1223.21,-16 1223.21,-16 1317.96,-16 1317.96,-16 1323.96,-16 1329.96,-22 1329.96,-28 1329.96,-28 1329.96,-40 1329.96,-40 1329.96,-46 1323.96,-52 1317.96,-52"/>
<text xml:space="preserve" text-anchor="middle" x="1270.58" y="-37.05" font-family="Arial" font-size="11.00" fill="white">Automated Backups</text>
<text xml:space="preserve" text-anchor="middle" x="1270.58" y="-23.55" font-family="Arial" font-size="11.00" fill="white">Daily/Weekly/Monthly</text>
</g>
<!-- audit_integrity&#45;&gt;backups -->
<g id="edge26" class="edge">
<title>audit_integrity&#45;&gt;backups</title>
<path fill="none" stroke="white" d="M1270.58,-88.81C1270.58,-81.23 1270.58,-72.1 1270.58,-63.54"/>
<polygon fill="white" stroke="white" points="1274.08,-63.54 1270.58,-53.54 1267.08,-63.54 1274.08,-63.54"/>
</g>
<!-- ai_service&#45;&gt;server -->
<g id="edge32" class="edge">
<title>ai_service&#45;&gt;server</title>
<path fill="none" stroke="white" d="M830.93,-504.09C855.52,-484.94 895.49,-453.81 925.33,-430.57"/>
<polygon fill="white" stroke="white" points="927.3,-433.47 933.04,-424.57 923,-427.95 927.3,-433.47"/>
<text xml:space="preserve" text-anchor="middle" x="899.53" y="-464.95" font-family="Arial" font-size="9.00">API calls</text>
</g>
<!-- auth_check&#45;&gt;auth -->
<g id="edge9" class="edge">
<title>auth_check&#45;&gt;auth</title>
<path fill="none" stroke="white" d="M94.48,-413.55C111.27,-426.28 138.23,-444.86 164.58,-455 282.52,-500.4 324.79,-457.74 446.58,-491.5 453.89,-493.53 461.4,-496.32 468.59,-499.4"/>
<polygon fill="white" stroke="white" points="466.9,-502.48 477.45,-503.43 469.8,-496.1 466.9,-502.48"/>
<text xml:space="preserve" text-anchor="middle" x="235.01" y="-464.95" font-family="Arial" font-size="9.00">Yes</text>
</g>
<!-- error -->
<g id="node28" class="node">
<title>error</title>
<path fill="#8a5a5a" stroke="black" d="M259.96,-328.25C259.96,-328.25 177.21,-328.25 177.21,-328.25 171.21,-328.25 165.21,-322.25 165.21,-316.25 165.21,-316.25 165.21,-304.25 165.21,-304.25 165.21,-298.25 171.21,-292.25 177.21,-292.25 177.21,-292.25 259.96,-292.25 259.96,-292.25 265.96,-292.25 271.96,-298.25 271.96,-304.25 271.96,-304.25 271.96,-316.25 271.96,-316.25 271.96,-322.25 265.96,-328.25 259.96,-328.25"/>
<text xml:space="preserve" text-anchor="middle" x="218.58" y="-313.3" font-family="Arial" font-size="11.00" fill="white">✗ Access Denied</text>
<text xml:space="preserve" text-anchor="middle" x="218.58" y="-299.8" font-family="Arial" font-size="11.00" fill="white">401/403 Response</text>
</g>
<!-- auth_check&#45;&gt;error -->
<g id="edge10" class="edge">
<title>auth_check&#45;&gt;error</title>
<path fill="none" stroke="white" d="M98.08,-385.39C119.62,-372.14 153.98,-350.99 180.51,-334.67"/>
<polygon fill="white" stroke="white" points="182.28,-337.69 188.96,-329.47 178.61,-331.73 182.28,-337.69"/>
<text xml:space="preserve" text-anchor="middle" x="166.71" y="-348.2" font-family="Arial" font-size="9.00">No</text>
</g>
<!-- authorized_check&#45;&gt;rbac -->
<g id="edge12" class="edge">
<title>authorized_check&#45;&gt;rbac</title>
<path fill="none" stroke="white" d="M251.39,-413.82C264.26,-426.76 285.33,-445.48 307.58,-455 417.69,-502.13 459.61,-457.93 574.58,-491.5 581.87,-493.63 589.39,-496.45 596.61,-499.52"/>
<polygon fill="white" stroke="white" points="594.97,-502.62 605.53,-503.51 597.83,-496.23 594.97,-502.62"/>
<text xml:space="preserve" text-anchor="middle" x="374.36" y="-464.95" font-family="Arial" font-size="9.00">Check</text>
</g>
<!-- authorized_check&#45;&gt;error -->
<g id="edge13" class="edge">
<title>authorized_check&#45;&gt;error</title>
<path fill="none" stroke="white" d="M234.82,-381.68C232.1,-369.87 228.35,-353.61 225.14,-339.68"/>
<polygon fill="white" stroke="white" points="228.6,-339.12 222.94,-330.16 221.78,-340.69 228.6,-339.12"/>
<text xml:space="preserve" text-anchor="middle" x="234.58" y="-348.2" font-family="Arial" font-size="9.00">No</text>
</g>
<!-- success&#45;&gt;audit_route -->
<g id="edge34" class="edge">
<title>success&#45;&gt;audit_route</title>
<path fill="none" stroke="white" d="M1436,-380.55C1429.53,-378.43 1422.92,-376.43 1416.58,-374.75 1307.88,-345.97 1273.36,-359.18 1162.55,-328.82"/>
<polygon fill="white" stroke="white" points="1163.62,-325.48 1153.04,-326.15 1161.72,-332.22 1163.62,-325.48"/>
<text xml:space="preserve" text-anchor="middle" x="1344.72" y="-348.2" font-family="Arial" font-size="9.00">Log action</text>
</g>
<!-- legend_entry -->
<g id="node29" class="node">
<title>legend_entry</title>
<path fill="#5a9fd4" stroke="black" d="M1633.21,-657.75C1633.21,-657.75 1587.96,-657.75 1587.96,-657.75 1581.96,-657.75 1575.96,-651.75 1575.96,-645.75 1575.96,-645.75 1575.96,-633.75 1575.96,-633.75 1575.96,-627.75 1581.96,-621.75 1587.96,-621.75 1587.96,-621.75 1633.21,-621.75 1633.21,-621.75 1639.21,-621.75 1645.21,-627.75 1645.21,-633.75 1645.21,-633.75 1645.21,-645.75 1645.21,-645.75 1645.21,-651.75 1639.21,-657.75 1633.21,-657.75"/>
<text xml:space="preserve" text-anchor="middle" x="1610.58" y="-636.05" font-family="Arial" font-size="11.00" fill="white">Entry Point</text>
</g>
<!-- legend_security -->
<g id="node30" class="node">
<title>legend_security</title>
<path fill="#6a8a6a" stroke="black" d="M1641.08,-540.5C1641.08,-540.5 1580.08,-540.5 1580.08,-540.5 1574.08,-540.5 1568.08,-534.5 1568.08,-528.5 1568.08,-528.5 1568.08,-516.5 1568.08,-516.5 1568.08,-510.5 1574.08,-504.5 1580.08,-504.5 1580.08,-504.5 1641.08,-504.5 1641.08,-504.5 1647.08,-504.5 1653.08,-510.5 1653.08,-516.5 1653.08,-516.5 1653.08,-528.5 1653.08,-528.5 1653.08,-534.5 1647.08,-540.5 1641.08,-540.5"/>
<text xml:space="preserve" text-anchor="middle" x="1610.58" y="-518.8" font-family="Arial" font-size="11.00" fill="white">Security Layer</text>
</g>
<!-- legend_entry&#45;&gt;legend_security -->
<!-- legend_backend -->
<g id="node31" class="node">
<title>legend_backend</title>
<path fill="#7a6a9a" stroke="black" d="M1647.08,-417C1647.08,-417 1574.08,-417 1574.08,-417 1568.08,-417 1562.08,-411 1562.08,-405 1562.08,-405 1562.08,-393 1562.08,-393 1562.08,-387 1568.08,-381 1574.08,-381 1574.08,-381 1647.08,-381 1647.08,-381 1653.08,-381 1659.08,-387 1659.08,-393 1659.08,-393 1659.08,-405 1659.08,-405 1659.08,-411 1653.08,-417 1647.08,-417"/>
<text xml:space="preserve" text-anchor="middle" x="1610.58" y="-395.3" font-family="Arial" font-size="11.00" fill="white">Backend Service</text>
</g>
<!-- legend_security&#45;&gt;legend_backend -->
<!-- legend_database -->
<g id="node32" class="node">
<title>legend_database</title>
<path fill="#8a6a5a" stroke="black" d="M1629.83,-328.25C1629.83,-328.25 1591.33,-328.25 1591.33,-328.25 1585.33,-328.25 1579.33,-322.25 1579.33,-316.25 1579.33,-316.25 1579.33,-304.25 1579.33,-304.25 1579.33,-298.25 1585.33,-292.25 1591.33,-292.25 1591.33,-292.25 1629.83,-292.25 1629.83,-292.25 1635.83,-292.25 1641.83,-298.25 1641.83,-304.25 1641.83,-304.25 1641.83,-316.25 1641.83,-316.25 1641.83,-322.25 1635.83,-328.25 1629.83,-328.25"/>
<text xml:space="preserve" text-anchor="middle" x="1610.58" y="-306.55" font-family="Arial" font-size="11.00" fill="white">Database</text>
</g>
<!-- legend_backend&#45;&gt;legend_database -->
<!-- legend_feature -->
<g id="node33" class="node">
<title>legend_feature</title>
<path fill="#9a7a6a" stroke="black" d="M1646.33,-220.5C1646.33,-220.5 1574.83,-220.5 1574.83,-220.5 1568.83,-220.5 1562.83,-214.5 1562.83,-208.5 1562.83,-208.5 1562.83,-196.5 1562.83,-196.5 1562.83,-190.5 1568.83,-184.5 1574.83,-184.5 1574.83,-184.5 1646.33,-184.5 1646.33,-184.5 1652.33,-184.5 1658.33,-190.5 1658.33,-196.5 1658.33,-196.5 1658.33,-208.5 1658.33,-208.5 1658.33,-214.5 1652.33,-220.5 1646.33,-220.5"/>
<text xml:space="preserve" text-anchor="middle" x="1610.58" y="-198.8" font-family="Arial" font-size="11.00" fill="white">Security Feature</text>
</g>
<!-- legend_database&#45;&gt;legend_feature -->
</g>
</svg>
